<?xml version="1.0" encoding="utf-8"?>
<!-- Generator: Adobe Illustrator 19.0.1, SVG Export Plug-In . SVG Version: 6.00 Build 0)  -->
<svg version="1.1"
	 id="svg22880" xmlns:rdf="http://www.w3.org/1999/02/22-rdf-syntax-ns#" xmlns:cc="http://creativecommons.org/ns#" xmlns:dc="http://purl.org/dc/elements/1.1/" xmlns:svg="http://www.w3.org/2000/svg"
	 xmlns="http://www.w3.org/2000/svg" xmlns:xlink="http://www.w3.org/1999/xlink" x="0px" y="0px" viewBox="-421 366 444 307.9"
	 style="enable-background:new -421 366 444 307.9;" xml:space="preserve">
<style type="text/css">
	.st0{clip-path:url(#SVGID_2_);}
	.st1{fill:#FFFFFF;}
</style>
<g id="layer1" transform="translate(-243.80493,-259.79888)">
	<g id="g7354" transform="matrix(8.4309473,0,0,-8.4309473,-3215.3023,1916.9901)">
		<g>
			<defs>
				<rect id="SVGID_1_" x="70" y="15.7" width="633.3" height="239"/>
			</defs>
			<clipPath id="SVGID_2_">
				<use xlink:href="#SVGID_1_"  style="overflow:visible;"/>
			</clipPath>
			<g id="g7356" class="st0">
				<g id="g7362" transform="translate(428.0269,191.3445)">
					<path id="path7364" class="st1" d="M-41.4-49c-0.5,0-0.9,0.4-0.9,0.9c0,0.5,0.4,0.9,0.9,0.9s0.9-0.4,0.9-0.9
						C-40.5-48.6-40.9-49-41.4-49 M-41.4-43.8c-2.4,0-4.3-1.9-4.3-4.3c0-2.4,1.9-4.3,4.3-4.3c2.4,0,4.3,1.9,4.3,4.3
						C-37.1-45.7-39-43.8-41.4-43.8"/>
				</g>
				<g id="g7366" transform="translate(431.0455,179.5372)">
					<path id="path7368" class="st1" d="M-41.4-49l0.2,0.1c0.2,0.1,1,0.6,0.8,1.1c-0.1,0.5-0.7,0.6-0.7,0.6s-3.6,1.1-5.8,1.8
						c-2.3,0.7-2.4,2.4-2.4,2.7c-0.1,1.8,1.2,2.6,1.4,2.6l0.1,0.1l0-0.1l-0.1,0c-0.1-0.1-0.8-0.4-0.7-0.9c0.1-0.5,0.7-0.6,0.7-0.6
						s3.6-1.1,5.8-1.8c2.3-0.7,2.4-2.4,2.4-2.7c0.1-2-1.3-2.8-1.6-2.9L-41.4-49L-41.4-49z"/>
				</g>
				<g id="g7370" transform="translate(413.0009,177.73441)">
					<path id="path7372" class="st1" d="M-41.4-49c-0.2,0.3-0.6,0.5-0.9,0.5c-0.3,0-0.6-0.1-0.8-0.3c-0.2-0.2-0.4-0.5-0.4-0.9
						c0-0.3,0.1-0.6,0.3-0.8c0.2-0.2,0.6-0.4,0.9-0.4c0.4,0,0.8,0.2,1,0.6h-1.4v0.6h2.2v-0.1c0-1-0.8-1.8-1.8-1.8
						c-1,0-1.8,0.8-1.8,1.8c0,1,0.8,1.8,1.8,1.8c0.7,0,1.4-0.4,1.7-1.1H-41.4z"/>
				</g>
				<g id="g7374" transform="translate(417.5009,178.8027)">
					<path id="path7376" class="st1" d="M-41.4-49c-1,0-1.8-0.8-1.8-1.8c0-1,0.8-1.8,1.8-1.8c1,0,1.8,0.8,1.8,1.8
						C-39.6-49.8-40.4-49-41.4-49 M-40.2-50.8c0-0.6-0.5-1.2-1.2-1.2c-0.6,0-1.1,0.5-1.1,1.2c0,0.6,0.5,1.2,1.1,1.2l0,0
						C-40.8-49.6-40.2-50.1-40.2-50.8"/>
				</g>
				<g id="g7378" transform="translate(422.2182,177.4252)">
					<path id="path7380" class="st1" d="M-41.4-49v0.7h0.1c0.1,0,0.3,0,0.4,0c0.1-0.1,0.2-0.2,0.2-0.3c0-0.1-0.1-0.3-0.2-0.3
						C-41-49-41.1-49-41.3-49H-41.4z M-42-51.1h0.9c0.3,0,0.7,0,0.9,0.2c0.3,0.2,0.4,0.5,0.4,0.8c0,0.4-0.2,0.7-0.6,0.8
						c0.2,0.1,0.4,0.4,0.4,0.7c0,0.3-0.2,0.6-0.5,0.8c-0.3,0.1-0.6,0.1-0.9,0.1H-42V-51.1z M-41.4-50.5v0.9h0.3c0.2,0,0.3,0,0.4-0.1
						c0.1-0.1,0.2-0.2,0.2-0.4c0-0.1-0.1-0.3-0.2-0.3c-0.2-0.1-0.3-0.1-0.5-0.1H-41.4z"/>
				</g>
				<g id="g7382" transform="translate(426.3248,178.7382)">
					<path id="path7384" class="st1" d="M-41.4-49h1.8v-0.6h-1.2v-0.8h1.2V-51h-1.2v-0.8h1.2v-0.6h-1.8V-49z"/>
				</g>
				<g id="g7386" transform="translate(430.85181,178.7382)">
					<path id="path7388" class="st1" d="M-41.4-49h0.6v-2.8h1v-0.6h-1.7V-49z"/>
				</g>
				<path id="path7390" class="st1" d="M393.5,129.8h0.6v-3.4h-0.6V129.8z"/>
				<g id="g7392" transform="translate(438.3618,178.7382)">
					<path id="path7394" class="st1" d="M-41.4-49h0.7l1.4-2.5v2.5h0.6v-3.4h-0.7l-1.4,2.5v-2.5h-0.6V-49z"/>
				</g>
				<g id="g7396" transform="translate(444.31709,176.2829)">
					<path id="path7398" class="st1" d="M-41.4-49c0-0.3,0.2-0.4,0.5-0.4c0.2,0,0.4,0.2,0.4,0.4c0,0.4-0.3,0.5-0.6,0.6
						c-0.2,0.1-0.4,0.1-0.6,0.3c-0.2,0.2-0.3,0.4-0.3,0.7c0,0.6,0.5,1,1,1c0.5,0,1-0.4,1-1h-0.7c0,0.2-0.2,0.4-0.4,0.4
						c-0.2,0-0.3-0.2-0.3-0.4c0-0.2,0.2-0.3,0.4-0.4c0.2-0.1,0.5-0.2,0.7-0.3c0.2-0.2,0.4-0.4,0.4-0.8c0-0.6-0.5-1.1-1.1-1.1
						c-0.6,0-1.1,0.4-1.1,1H-41.4z"/>
				</g>
				<g id="g7400" transform="translate(411.5116,171.9278)">
					<path id="path7402" class="st1" d="M-41.4-49h-1.2v2.3h0.2v-2.2h0.9V-49z"/>
				</g>
				<g id="g7404" transform="translate(411.92149,174.2493)">
					<path id="path7406" class="st1" d="M-41.4-49h0.2l-0.2-0.6h-0.1L-41.4-49z"/>
				</g>
				<g id="g7408" transform="translate(413.66319,174.3492)">
					<path id="path7410" class="st1" d="M-41.4-49h-0.2l0.3,0.3h0.3L-41.4-49z M-41-50.1v-0.2h-0.8v-1h1.1v-0.2h-1.3v2.3h1.3v-0.2
						h-1v-0.9H-41z"/>
				</g>
				<g id="g7412" transform="translate(417.2188,172.4864)">
					<path id="path7414" class="st1" d="M-41.4-49c-0.2-0.3-0.5-0.6-1-0.6c-0.3,0-0.7,0.1-0.8,0.3c-0.2,0.2-0.4,0.5-0.4,0.9
						c0,0.4,0.1,0.7,0.4,0.9c0.2,0.2,0.5,0.3,0.9,0.3c0.5,0,0.8-0.2,1-0.6l-0.3,0c-0.1,0.2-0.3,0.4-0.7,0.4c-0.5,0-1-0.3-1-1
						c0-0.7,0.5-1,1-1c0.4,0,0.7,0.3,0.8,0.5L-41.4-49z"/>
				</g>
				<g id="g7416" transform="translate(417.69501,173.09351)">
					<path id="path7418" class="st1" d="M-41.4-49c0-0.8,0.6-1.2,1.2-1.2c0.7,0,1.2,0.4,1.2,1.2c0,0.8-0.6,1.2-1.2,1.2
						C-40.8-47.8-41.4-48.1-41.4-49L-41.4-49z M-40.2-47.9c0.5,0,1-0.3,1-1c0-0.7-0.5-1-1-1c-0.5,0-1,0.3-1,1
						C-41.1-48.2-40.7-47.9-40.2-47.9L-40.2-47.9z"/>
				</g>
				<g id="g7420" transform="translate(422.0479,171.9278)">
					<path id="path7422" class="st1" d="M-41.4-49h-1.2v2.3h0.2v-2.2h0.9V-49z"/>
				</g>
				<g id="g7424" transform="translate(423.849,173.2281)">
					<path id="path7426" class="st1" d="M-41.4-49v-0.2h-0.8v-1h1v-0.2h-1.3v2.3h1.3v-0.2h-1V-49H-41.4z"/>
				</g>
				<g id="g7428" transform="translate(426.49471,171.9278)">
					<path id="path7430" class="st1" d="M-41.4-49c0.8,0,1.2,0.4,1.2,1.2c0,0.8-0.4,1.2-1.2,1.2h-0.7V-49H-41.4z M-41.9-48.8v2h0.5
						c0.7,0,0.9-0.4,0.9-1c0-0.7-0.3-1-0.9-1H-41.9z"/>
				</g>
				<g id="g7432" transform="translate(429.5732,173.2281)">
					<path id="path7434" class="st1" d="M-41.4-49v-0.2h-0.8v-1h1.1v-0.2h-1.3v2.3h1.3v-0.2h-1V-49H-41.4z"/>
				</g>
				<g id="g7436" transform="translate(432.5676,171.9278)">
					<path id="path7438" class="st1" d="M-41.4-49h-1.2v2.3h0.2v-2.2h0.9V-49z"/>
				</g>
				<g id="g7440" transform="translate(432.9877,174.18559)">
					<path id="path7442" class="st1" d="M-41.4-49h0.2l-0.2-0.6h-0.1L-41.4-49z"/>
				</g>
				<path id="path7444" class="st1" d="M392.7,125.3h0.2v-2.3h-0.2V125.3z"/>
				<g id="g7446" transform="translate(436.7939,172.1763)">
					<path id="path7448" class="st1" d="M-41.4-49c0.1,0.4,0.4,1.1,0.8,2.1h0.4v-2.3h-0.2c0,1.1,0,1.8,0,2.1h0
						c-0.1-0.4-0.4-1.1-0.9-2.1h-0.2c-0.4,1.1-0.7,1.8-0.9,2.1h0c0-0.4,0-1.1,0-2.1h-0.2v2.3h0.4C-41.8-47.9-41.5-48.6-41.4-49
						L-41.4-49z"/>
				</g>
				<g id="g7450" transform="translate(440.34821,172.6653)">
					<path id="path7452" class="st1" d="M-41.4-49l0.3-0.7h0.3l-1,2.3h-0.3l-1-2.3h0.3l0.3,0.7H-41.4z M-41.5-48.8h-1l0.2,0.6
						c0.1,0.2,0.2,0.4,0.2,0.6h0c0.1-0.2,0.2-0.4,0.2-0.6L-41.5-48.8z"/>
				</g>
				<g id="g7454" transform="translate(443.7092,172.1759)">
					<path id="path7456" class="st1" d="M-41.4-49c-0.3-0.2-0.6-0.3-1-0.3c-0.8,0-1.3,0.5-1.3,1.2c0,0.9,0.7,1.2,1.3,1.2
						c0.4,0,0.8-0.2,1-0.5l-0.2-0.1c-0.2,0.2-0.4,0.4-0.8,0.4c-0.5,0-1.1-0.3-1.1-1.1c0-0.7,0.5-1,1.1-1c0.3,0,0.6,0.1,0.8,0.2v0.6
						h-0.7v0.2h0.9V-49z"/>
				</g>
				<g id="g7458" transform="translate(445.5966,173.2281)">
					<path id="path7460" class="st1" d="M-41.4-49v-0.2h-0.8v-1h1v-0.2h-1.3v2.3h1.3v-0.2h-1V-49H-41.4z"/>
				</g>
			</g>
		</g>
	</g>
</g>
</svg>
